<svg width="22" height="18" viewBox="0 0 22 18" fill="none" xmlns="http://www.w3.org/2000/svg">
<path d="M6.44653 7.92861H15.6072C15.618 7.92861 15.6314 7.92861 15.6421 7.92593C15.7599 7.90718 15.8376 7.79736 15.8189 7.6795L14.7421 1.03664C14.726 0.932178 14.6349 0.857178 14.5305 0.857178H7.52332C7.41885 0.857178 7.32778 0.932178 7.31171 1.03664L6.23493 7.6795C6.23225 7.69021 6.23225 7.70361 6.23225 7.71432C6.23225 7.83218 6.32868 7.92861 6.44653 7.92861ZM8.88939 2.67861H13.1617L13.7162 6.10718H8.33225L8.88939 2.67861ZM8.95635 10.2509C8.94028 10.1465 8.84921 10.0715 8.74475 10.0715H1.7376C1.63314 10.0715 1.54207 10.1465 1.526 10.2509L0.449212 16.8938C0.446533 16.9045 0.446533 16.9179 0.446533 16.9286C0.446533 17.0465 0.542962 17.1429 0.660819 17.1429H9.82153C9.83225 17.1429 9.84564 17.1429 9.85635 17.1402C9.97421 17.1215 10.0519 17.0116 10.0331 16.8938L8.95635 10.2509ZM2.54921 15.3215L3.10368 11.8929H7.376L7.93046 15.3215H2.54921ZM21.551 16.8938L20.4742 10.2509C20.4581 10.1465 20.3671 10.0715 20.2626 10.0715H13.2555C13.151 10.0715 13.0599 10.1465 13.0439 10.2509L11.9671 16.8938C11.9644 16.9045 11.9644 16.9179 11.9644 16.9286C11.9644 17.0465 12.0608 17.1429 12.1787 17.1429H21.3394C21.3501 17.1429 21.3635 17.1429 21.3742 17.1402C21.4894 17.1215 21.5697 17.0116 21.551 16.8938ZM14.0671 15.3215L14.6215 11.8929H18.8939L19.4483 15.3215H14.0671Z" fill="white"/>
</svg>
