<svg width="44" height="47" viewBox="0 0 44 47" fill="none" xmlns="http://www.w3.org/2000/svg">
<path d="M40.9657 35.25C41.7705 35.25 42.5421 34.94 43.1115 34.3894C43.6804 33.8387 44 33.0913 44 32.3121V13.7035C44.0016 12.1447 43.3629 10.6494 42.2251 9.54705L34.1382 1.71819C32.9989 0.616828 31.4543 -0.00144001 29.844 2.51859e-06H7.58637C5.57397 2.51859e-06 3.64448 0.773513 2.22205 2.15094C0.79908 3.5279 8.27001e-05 5.39611 8.27001e-05 7.34378V32.3126C8.27001e-05 33.3623 0.57847 34.3319 1.5172 34.8565C2.45597 35.3815 3.61278 35.3815 4.55145 34.8565C5.49021 34.3319 6.06857 33.3622 6.06857 32.3126V7.34378C6.06857 6.53236 6.74803 5.87516 7.58623 5.87516H29.8439L37.9312 13.7035V32.3121C37.9312 33.0913 38.2509 33.8387 38.8197 34.3894C39.3891 34.94 40.1608 35.25 40.9657 35.25Z" fill="#93C5FD"/>
<path d="M3.03424 47H40.9657C42.05 47 43.0516 46.4401 43.5935 45.5314C44.1354 44.6226 44.1354 43.5028 43.5935 42.5941C43.0516 41.6849 42.0498 41.125 40.9657 41.125H3.03424C1.94996 41.125 0.948286 41.6849 0.406408 42.5941C-0.135469 43.5029 -0.135469 44.6227 0.406408 45.5314C0.948286 46.44 1.95008 47 3.03424 47Z" fill="#93C5FD"/>
<path d="M28.8276 26.4374H15.1723C14.088 26.4374 13.0863 26.9973 12.5439 27.9066C12.002 28.8153 12.002 29.9351 12.5439 30.8438C13.0863 31.7526 14.088 32.3124 15.1723 32.3124H28.8276C29.9119 32.3124 30.9136 31.7525 31.456 30.8438C31.9979 29.9351 31.9979 28.8152 31.456 27.9066C30.9136 26.9973 29.9119 26.4374 28.8276 26.4374Z" fill="#93C5FD"/>
<path d="M28.8276 14.6874H15.1723C14.088 14.6874 13.0863 15.2473 12.5439 16.156C12.002 17.0647 12.002 18.1846 12.5439 19.0932C13.0863 20.0025 14.088 20.5624 15.1723 20.5624H28.8276C29.9119 20.5624 30.9136 20.0025 31.456 19.0932C31.9979 18.1845 31.9979 17.0647 31.456 16.156C30.9136 15.2472 29.9119 14.6874 28.8276 14.6874Z" fill="#93C5FD"/>
</svg>
