<svg width="20" height="20" viewBox="0 0 20 20" fill="none" xmlns="http://www.w3.org/2000/svg">
<path d="M19.555 10H18.19C18.0828 10 17.995 10.0877 17.995 10.195V17.995H2.005V2.005H9.805C9.91225 2.005 10 1.91725 10 1.81V0.445C10 0.33775 9.91225 0.25 9.805 0.25H1.03C0.598563 0.25 0.25 0.598562 0.25 1.03V18.97C0.25 19.4014 0.598563 19.75 1.03 19.75H18.97C19.4014 19.75 19.75 19.4014 19.75 18.97V10.195C19.75 10.0877 19.6623 10 19.555 10Z" fill="white"/>
<path d="M6.19506 10.5582L6.14875 13.4564C6.14631 13.6733 6.32181 13.8512 6.53875 13.8512H6.5485L9.42475 13.7806C9.4735 13.7781 9.52225 13.7586 9.55637 13.7245L19.6939 3.60887C19.7695 3.53331 19.7695 3.409 19.6939 3.33344L16.6641 0.306063C16.6251 0.267063 16.5764 0.25 16.5252 0.25C16.474 0.25 16.4253 0.2695 16.3863 0.306063L6.25112 10.4217C6.21592 10.4585 6.1959 10.5073 6.19506 10.5582ZM7.74287 11.1334L16.5252 2.37062L17.6269 3.46994L8.83975 12.2376L7.72581 12.2644L7.74287 11.1334Z" fill="white"/>
</svg>
