<svg width="18" height="18" viewBox="0 0 18 18" fill="none" xmlns="http://www.w3.org/2000/svg">
<path d="M8.01775 0.428589H1.14275C0.747663 0.428589 0.428467 0.747785 0.428467 1.14287V8.01787C0.428467 8.11609 0.508824 8.19645 0.607038 8.19645H8.01775C8.11597 8.19645 8.19632 8.11609 8.19632 8.01787V0.60716C8.19632 0.508946 8.11597 0.428589 8.01775 0.428589ZM6.76775 6.76787H1.85704V1.85716H6.76775V6.76787ZM3.6874 5.11609H4.9374C5.03561 5.11609 5.11597 5.03573 5.11597 4.93752V3.68752C5.11597 3.5893 5.03561 3.50895 4.9374 3.50895H3.6874C3.58918 3.50895 3.50882 3.5893 3.50882 3.68752V4.93752C3.50882 5.03573 3.58918 5.11609 3.6874 5.11609ZM8.01775 9.80359H0.607038C0.508824 9.80359 0.428467 9.88395 0.428467 9.98216V16.8572C0.428467 17.2522 0.747663 17.5714 1.14275 17.5714H8.01775C8.11597 17.5714 8.19632 17.4911 8.19632 17.3929V9.98216C8.19632 9.88395 8.11597 9.80359 8.01775 9.80359ZM6.76775 16.1429H1.85704V11.2322H6.76775V16.1429ZM3.6874 14.4911H4.9374C5.03561 14.4911 5.11597 14.4107 5.11597 14.3125V13.0625C5.11597 12.9643 5.03561 12.8839 4.9374 12.8839H3.6874C3.58918 12.8839 3.50882 12.9643 3.50882 13.0625V14.3125C3.50882 14.4107 3.58918 14.4911 3.6874 14.4911ZM16.857 0.428589H9.98204C9.88382 0.428589 9.80347 0.508946 9.80347 0.60716V8.01787C9.80347 8.11609 9.88382 8.19645 9.98204 8.19645H17.3928C17.491 8.19645 17.5713 8.11609 17.5713 8.01787V1.14287C17.5713 0.747785 17.2521 0.428589 16.857 0.428589ZM16.1428 6.76787H11.232V1.85716H16.1428V6.76787ZM13.0624 5.11609H14.3124C14.4106 5.11609 14.491 5.03573 14.491 4.93752V3.68752C14.491 3.5893 14.4106 3.50895 14.3124 3.50895H13.0624C12.9642 3.50895 12.8838 3.5893 12.8838 3.68752V4.93752C12.8838 5.03573 12.9642 5.11609 13.0624 5.11609ZM17.3928 9.80359H16.3213C16.2231 9.80359 16.1428 9.88395 16.1428 9.98216V12.9732H14.4017V9.98216C14.4017 9.88395 14.3213 9.80359 14.2231 9.80359H9.98204C9.88382 9.80359 9.80347 9.88395 9.80347 9.98216V17.3929C9.80347 17.4911 9.88382 17.5714 9.98204 17.5714H11.0535C11.1517 17.5714 11.232 17.4911 11.232 17.3929V11.9464H12.9731V14.2232C12.9731 14.3214 13.0535 14.4018 13.1517 14.4018H17.3928C17.491 14.4018 17.5713 14.3214 17.5713 14.2232V9.98216C17.5713 9.88395 17.491 9.80359 17.3928 9.80359ZM14.2231 16.1429H13.1517C13.0535 16.1429 12.9731 16.2232 12.9731 16.3214V17.3929C12.9731 17.4911 13.0535 17.5714 13.1517 17.5714H14.2231C14.3213 17.5714 14.4017 17.4911 14.4017 17.3929V16.3214C14.4017 16.2232 14.3213 16.1429 14.2231 16.1429ZM17.3928 16.1429H16.3213C16.2231 16.1429 16.1428 16.2232 16.1428 16.3214V17.3929C16.1428 17.4911 16.2231 17.5714 16.3213 17.5714H17.3928C17.491 17.5714 17.5713 17.4911 17.5713 17.3929V16.3214C17.5713 16.2232 17.491 16.1429 17.3928 16.1429Z" fill="white"/>
</svg>
